<?xml version="1.0" encoding="utf-8"?>
<!-- Generator: Adobe Illustrator 19.0.0, SVG Export Plug-In . SVG Version: 6.00 Build 0)  -->
<svg version="1.1" id="Layer_1" xmlns="http://www.w3.org/2000/svg" x="0px" y="0px" height="17" width="17"
     viewBox="20 20 56 56" style="enable-background:new 0 0 96 96;" xml:space="preserve">
<g id="XMLID_1_">
	<path id="XMLID_15_" d="M33.4,20.5v29.1h42.1V20.5H33.4z M72.3,46.4H36.7V23.7h35.6V46.4z M20.5,30.2h9.7v-9.7h-9.7V30.2z
		 M23.7,23.7H27V27h-3.2V23.7z M33.4,62.6h42.1v-9.7H33.4V62.6z M36.7,56.1h35.6v3.2H36.7V56.1z M20.5,62.6h9.7v-9.7h-9.7V62.6z
		 M23.7,56.1H27v3.2h-3.2V56.1z M33.4,75.5h42.1v-9.7H33.4V75.5z M36.7,69h35.6v3.2H36.7V69z M20.5,75.5h9.7v-9.7h-9.7V75.5z
		 M23.7,69H27v3.2h-3.2V69z"/>
</g>
</svg>
